# xmcd CD database file
#
# Track frame offsets:
#	150
#	18442
#	37200
#	59197
#	83627
#	102840
#	123340
#	143365
#	167967
#	187945
#	209892
#
# Disc length: 3174 seconds
#
# Revision: 5
# Processed by: cddbd v1.4PL0 Copyright (c) Steve Scherf et al.
# Submitted via: CDex 1.50
#
DISCID=9d0c640b
DTITLE=Solar Wind - Blue Horizon
DYEAR=2003
DGENRE=Jazz
TTITLE0=Shoreline Drive
TTITLE1=Sedona Sunrise
TTITLE2=Catalina Breeze
TTITLE3=Mix It Up
TTITLE4=Saturn way
TTITLE5=Blue Horizon
TTITLE6=Danse de la Glace
TTITLE7=Place in the Sun
TTITLE8=Manhattan Beach
TTITLE9=Eruption
TTITLE10=Sedona Sunrise(Reprise)
EXTD=YEAR: 2003
EXTT0=
EXTT1=
EXTT2=
EXTT3=
EXTT4=
EXTT5=
EXTT6=
EXTT7=
EXTT8=
EXTT9=
EXTT10=
PLAYORDER=
